<svg width="48" height="48" viewBox="0 0 48 48" fill="none" xmlns="http://www.w3.org/2000/svg">
<g clip-path="url(#clip0_2_119)">
<path d="M48 24.1471C48 10.8091 37.254 -0.00292969 24 -0.00292969C10.74 7.03125e-05 -0.00598145 10.8091 -0.00598145 24.1501C-0.00598145 36.2011 8.77202 46.1911 20.244 48.0031V31.1281H14.154V24.1501H20.25V18.8251C20.25 12.7741 23.835 9.43207 29.316 9.43207C31.944 9.43207 34.689 9.90307 34.689 9.90307V15.8431H31.662C28.683 15.8431 27.753 17.7061 27.753 19.6171V24.1471H34.407L33.345 31.1251H27.75V48.0001C39.222 46.1881 48 36.1981 48 24.1471Z" fill="#0077B6"/>
</g>
<defs>
<clipPath id="clip0_2_119">
<rect width="48" height="48" fill="white"/>
</clipPath>
</defs>
</svg>
