<svg width="40" height="40" viewBox="0 0 40 40" fill="none" xmlns="http://www.w3.org/2000/svg">
<g clip-path="url(#clip0_2_5234)">
<path d="M31.0005 11.0422C28.6005 11.0422 26.3338 11.9756 24.7088 13.6006L20.0005 17.7672L19.9922 17.7589L17.4672 19.9839L17.4838 20.0006L12.9922 23.9839C11.9255 25.0422 10.5088 25.6256 9.00049 25.6256C5.88382 25.6256 3.35049 23.1006 3.35049 20.0006C3.35049 16.9006 5.88382 14.3756 9.00049 14.3756C10.5088 14.3756 11.9255 14.9589 13.0672 16.0922L14.9588 17.7672L17.4755 15.5422L15.3672 13.6756C13.6672 11.9839 11.4088 11.0506 9.00049 11.0506C4.03382 11.0422 0.000488281 15.0589 0.000488281 20.0006C0.000488281 24.9422 4.03382 28.9589 9.00049 28.9589C11.4005 28.9589 13.6588 28.0256 15.2922 26.4089L20.0005 22.2339L20.0088 22.2422L22.5255 20.0089L22.5172 20.0006L27.0088 16.0256C28.0755 14.9589 29.4922 14.3756 31.0005 14.3756C34.1172 14.3756 36.6505 16.9006 36.6505 20.0006C36.6505 23.1006 34.1172 25.6256 31.0005 25.6256C29.4922 25.6256 28.0755 25.0422 26.9338 23.9172L25.0422 22.2422L22.5255 24.4756L24.6338 26.3422C26.3338 28.0339 28.5922 28.9589 30.9922 28.9589C35.9672 28.9589 40.0005 24.9422 40.0005 20.0006C40.0005 15.0589 35.9672 11.0422 31.0005 11.0422Z" fill="black"/>
</g>
<defs>
<clipPath id="clip0_2_5234">
<rect width="40" height="40" fill="white"/>
</clipPath>
</defs>
</svg>
