<svg width="40" height="40" viewBox="0 0 40 40" fill="none" xmlns="http://www.w3.org/2000/svg">
<g clip-path="url(#clip0_2_5228)">
<path d="M19.6667 18.1667C15.8834 17.1833 14.6667 16.175 14.6667 14.5917C14.6667 12.775 16.3417 11.5 19.1667 11.5C22.1334 11.5 23.2334 12.9167 23.3334 15H27.0167C26.9084 12.125 25.15 9.50833 21.6667 8.65V5H16.6667V8.6C13.4334 9.30833 10.8334 11.3917 10.8334 14.6167C10.8334 18.4667 14.025 20.3833 18.6667 21.5C22.8417 22.5 23.6667 23.9583 23.6667 25.525C23.6667 26.6667 22.8584 28.5 19.1667 28.5C15.7334 28.5 14.375 26.9583 14.2 25H10.525C10.7334 28.65 13.4584 30.6917 16.6667 31.3833V35H21.6667V31.4167C24.9084 30.7917 27.5 28.9167 27.5 25.4917C27.5 20.775 23.45 19.1583 19.6667 18.1667Z" fill="black"/>
</g>
<defs>
<clipPath id="clip0_2_5228">
<rect width="40" height="40" fill="white"/>
</clipPath>
</defs>
</svg>
