<svg width="16" height="16" viewBox="0 0 16 16" fill="none" xmlns="http://www.w3.org/2000/svg">
<g clip-path="url(#clip0_2_5209)">
<path d="M4.41676 7.19667C5.37676 9.08334 6.92009 10.6267 8.81009 11.5867L10.2768 10.1167C10.4601 9.93334 10.7234 9.88001 10.9534 9.95334C11.7001 10.2 12.5034 10.3333 13.3334 10.3333C13.7034 10.3333 14.0001 10.63 14.0001 11V13.3333C14.0001 13.7033 13.7034 14 13.3334 14C7.07343 14 2.00009 8.92667 2.00009 2.66667C2.00009 2.29667 2.30009 2 2.66676 2H5.00009C5.37009 2 5.66676 2.29667 5.66676 2.66667C5.66676 3.49667 5.80009 4.3 6.04676 5.04667C6.12009 5.27667 6.06676 5.54 5.88343 5.72334L4.41676 7.19667Z" fill="black"/>
</g>
<defs>
<clipPath id="clip0_2_5209">
<rect width="16" height="16" fill="white"/>
</clipPath>
</defs>
</svg>
