<svg width="236" height="42" viewBox="0 0 236 42" fill="none" xmlns="http://www.w3.org/2000/svg">
<path d="M52.7436 21.0339C52.7436 30.3054 45.2684 37.8 36.0736 37.8C26.8789 37.8 19.4037 30.3054 19.4037 21.0339C19.4037 11.7624 26.8789 4.26772 36.0736 4.26772C45.2684 4.26772 52.7436 11.7624 52.7436 21.0339Z" fill="url(#paint0_linear_2_5951)" stroke="url(#paint1_linear_2_5951)" stroke-width="5"/>
<path d="M46.3536 21.0339C46.3536 26.7586 41.7394 31.378 36.0737 31.378C30.408 31.378 25.7937 26.7586 25.7937 21.0339C25.7937 15.3092 30.408 10.6898 36.0737 10.6898C41.7394 10.6898 46.3536 15.3092 46.3536 21.0339Z" fill="#FFFDFA" stroke="url(#paint2_linear_2_5951)" stroke-width="5"/>
<ellipse cx="42.9976" cy="34.9089" rx="1.5975" ry="1.60551" fill="#FFFDFA"/>
<ellipse cx="36.1285" cy="36.5144" rx="1.5975" ry="1.60551" fill="#FFFDFA"/>
<ellipse cx="29.2592" cy="35.0695" rx="1.5975" ry="1.60551" fill="#FFFDFA"/>
<ellipse cx="49.8669" cy="14.0373" rx="1.5975" ry="1.60551" fill="#FFFDFA"/>
<ellipse cx="50.3462" cy="28.1658" rx="1.5975" ry="1.60551" fill="#FFFDFA"/>
<ellipse cx="51.4644" cy="21.1015" rx="1.5975" ry="1.60551" fill="#FFFDFA"/>
<ellipse cx="19.9389" cy="21.0339" rx="1.5975" ry="1.60551" fill="#FFFDFA"/>
<ellipse cx="21.7509" cy="28.1658" rx="1.5975" ry="1.60551" fill="#FFFDFA"/>
<ellipse cx="21.5913" cy="14.0373" rx="1.5975" ry="1.60551" fill="#FFFDFA"/>
<ellipse cx="36.0736" cy="5.1393" rx="1.5975" ry="1.60551" fill="#FFFDFA"/>
<ellipse cx="28.6202" cy="6.81246" rx="1.5975" ry="1.60551" fill="#FFFDFA"/>
<ellipse cx="43.3172" cy="6.81246" rx="1.5975" ry="1.60551" fill="#FFFDFA"/>
<rect width="54.0173" height="2.56241" rx="1.28121" transform="matrix(0.705335 -0.708874 0.705335 0.708874 16.0924 39.1635)" fill="#FFFDFA"/>
<rect width="54.0173" height="2.56242" rx="1.28121" transform="matrix(-0.705335 -0.708874 0.705335 -0.708874 54.1003 41.1279)" fill="#FFFDFA"/>
<path d="M40.8661 20.0343C40.8661 19.2161 40.2028 18.5528 39.3846 18.5528C38.5664 18.5528 37.9031 17.8858 37.9031 17.0676C37.9031 16.2454 37.2365 15.5751 36.4143 15.5751H35.7329C34.9107 15.5751 34.2441 16.2454 34.2441 17.0676C34.2441 17.8858 33.5808 18.5528 32.7626 18.5528C31.9444 18.5528 31.2811 19.2161 31.2811 20.0343V20.7484C31.2811 21.5666 31.9444 22.2299 32.7626 22.2299C33.5808 22.2299 34.2441 22.897 34.2441 23.7152C34.2441 24.5377 34.9108 25.2082 35.7333 25.2082H36.414C37.2364 25.2082 37.9031 24.5377 37.9031 23.7152C37.9031 22.897 38.5664 22.2299 39.3846 22.2299C40.2028 22.2299 40.8661 21.5666 40.8661 20.7484V20.0343Z" fill="url(#paint3_linear_2_5951)"/>
<path d="M73.71 28C73.578 28 73.47 27.958 73.386 27.874C73.302 27.79 73.26 27.682 73.26 27.55V15.85C73.26 15.718 73.302 15.61 73.386 15.526C73.47 15.442 73.578 15.4 73.71 15.4H76.032C76.164 15.4 76.272 15.442 76.356 15.526C76.44 15.61 76.482 15.718 76.482 15.85V20.188H80.928V15.85C80.928 15.718 80.97 15.61 81.054 15.526C81.138 15.442 81.246 15.4 81.378 15.4H83.7C83.832 15.4 83.94 15.442 84.024 15.526C84.108 15.61 84.15 15.718 84.15 15.85V27.55C84.15 27.682 84.108 27.79 84.024 27.874C83.94 27.958 83.832 28 83.7 28H81.378C81.246 28 81.138 27.958 81.054 27.874C80.97 27.79 80.928 27.682 80.928 27.55V23.068H76.482V27.55C76.482 27.682 76.44 27.79 76.356 27.874C76.272 27.958 76.164 28 76.032 28H73.71ZM90.7941 28.18C89.3781 28.18 88.2501 27.796 87.4101 27.028C86.5701 26.26 86.1321 25.12 86.0961 23.608C86.0961 23.524 86.0961 23.416 86.0961 23.284C86.0961 23.152 86.0961 23.05 86.0961 22.978C86.1321 22.03 86.3421 21.22 86.7261 20.548C87.1221 19.864 87.6621 19.348 88.3461 19C89.0421 18.64 89.8521 18.46 90.7761 18.46C91.8321 18.46 92.7021 18.67 93.3861 19.09C94.0821 19.51 94.6041 20.08 94.9521 20.8C95.3001 21.52 95.4741 22.342 95.4741 23.266V23.698C95.4741 23.83 95.4261 23.938 95.3301 24.022C95.2461 24.106 95.1441 24.148 95.0241 24.148H89.2641C89.2641 24.16 89.2641 24.178 89.2641 24.202C89.2641 24.226 89.2641 24.25 89.2641 24.274C89.2761 24.622 89.3361 24.94 89.4441 25.228C89.5521 25.516 89.7201 25.744 89.9481 25.912C90.1761 26.08 90.4521 26.164 90.7761 26.164C91.0161 26.164 91.2141 26.128 91.3701 26.056C91.5381 25.972 91.6761 25.882 91.7841 25.786C91.8921 25.678 91.9761 25.588 92.0361 25.516C92.1441 25.396 92.2281 25.324 92.2881 25.3C92.3601 25.264 92.4681 25.246 92.6121 25.246H94.8441C94.9641 25.246 95.0601 25.282 95.1321 25.354C95.2161 25.414 95.2521 25.504 95.2401 25.624C95.2281 25.828 95.1261 26.074 94.9341 26.362C94.7421 26.65 94.4601 26.938 94.0881 27.226C93.7281 27.502 93.2721 27.73 92.7201 27.91C92.1681 28.09 91.5261 28.18 90.7941 28.18ZM89.2641 22.366H92.3061V22.33C92.3061 21.946 92.2461 21.61 92.1261 21.322C92.0181 21.034 91.8441 20.812 91.6041 20.656C91.3761 20.5 91.1001 20.422 90.7761 20.422C90.4521 20.422 90.1761 20.5 89.9481 20.656C89.7321 20.812 89.5641 21.034 89.4441 21.322C89.3241 21.61 89.2641 21.946 89.2641 22.33V22.366ZM99.9696 28.18C99.3216 28.18 98.7396 28.06 98.2236 27.82C97.7196 27.568 97.3176 27.232 97.0176 26.812C96.7176 26.392 96.5676 25.918 96.5676 25.39C96.5676 24.538 96.9156 23.866 97.6116 23.374C98.3076 22.87 99.2316 22.528 100.384 22.348L102.634 22.006V21.754C102.634 21.322 102.544 20.992 102.364 20.764C102.184 20.536 101.854 20.422 101.374 20.422C101.038 20.422 100.762 20.488 100.546 20.62C100.342 20.752 100.18 20.932 100.06 21.16C99.9516 21.316 99.8016 21.394 99.6096 21.394H97.5936C97.4616 21.394 97.3596 21.358 97.2876 21.286C97.2156 21.202 97.1856 21.106 97.1976 20.998C97.1976 20.782 97.2756 20.536 97.4316 20.26C97.5996 19.972 97.8516 19.69 98.1876 19.414C98.5236 19.138 98.9556 18.91 99.4836 18.73C100.012 18.55 100.648 18.46 101.392 18.46C102.172 18.46 102.838 18.55 103.39 18.73C103.942 18.91 104.386 19.162 104.722 19.486C105.07 19.81 105.328 20.194 105.496 20.638C105.664 21.07 105.748 21.55 105.748 22.078V27.55C105.748 27.682 105.7 27.79 105.604 27.874C105.52 27.958 105.418 28 105.298 28H103.21C103.078 28 102.97 27.958 102.886 27.874C102.802 27.79 102.76 27.682 102.76 27.55V26.92C102.604 27.148 102.394 27.358 102.13 27.55C101.866 27.742 101.554 27.892 101.194 28C100.846 28.12 100.438 28.18 99.9696 28.18ZM100.816 26.128C101.164 26.128 101.476 26.056 101.752 25.912C102.04 25.756 102.262 25.522 102.418 25.21C102.586 24.886 102.67 24.484 102.67 24.004V23.752L101.14 24.022C100.576 24.118 100.162 24.268 99.8976 24.472C99.6456 24.664 99.5196 24.892 99.5196 25.156C99.5196 25.36 99.5796 25.534 99.6996 25.678C99.8196 25.822 99.9756 25.936 100.168 26.02C100.36 26.092 100.576 26.128 100.816 26.128ZM108.229 28C108.097 28 107.989 27.958 107.905 27.874C107.821 27.79 107.779 27.682 107.779 27.55V15.67C107.779 15.538 107.821 15.43 107.905 15.346C107.989 15.262 108.097 15.22 108.229 15.22H110.353C110.485 15.22 110.593 15.262 110.677 15.346C110.761 15.43 110.803 15.538 110.803 15.67V27.55C110.803 27.682 110.761 27.79 110.677 27.874C110.593 27.958 110.485 28 110.353 28H108.229ZM117.717 28C116.949 28 116.283 27.88 115.719 27.64C115.167 27.388 114.741 27.004 114.441 26.488C114.141 25.96 113.991 25.282 113.991 24.454V20.998H112.587C112.455 20.998 112.341 20.956 112.245 20.872C112.161 20.788 112.119 20.68 112.119 20.548V19.09C112.119 18.958 112.161 18.85 112.245 18.766C112.341 18.682 112.455 18.64 112.587 18.64H113.991V15.67C113.991 15.538 114.033 15.43 114.117 15.346C114.213 15.262 114.321 15.22 114.441 15.22H116.529C116.661 15.22 116.769 15.262 116.853 15.346C116.937 15.43 116.979 15.538 116.979 15.67V18.64H119.229C119.361 18.64 119.469 18.682 119.553 18.766C119.637 18.85 119.679 18.958 119.679 19.09V20.548C119.679 20.68 119.637 20.788 119.553 20.872C119.469 20.956 119.361 20.998 119.229 20.998H116.979V24.202C116.979 24.61 117.057 24.934 117.213 25.174C117.369 25.414 117.633 25.534 118.005 25.534H119.391C119.523 25.534 119.631 25.576 119.715 25.66C119.799 25.744 119.841 25.852 119.841 25.984V27.55C119.841 27.682 119.799 27.79 119.715 27.874C119.631 27.958 119.523 28 119.391 28H117.717ZM121.782 28C121.65 28 121.542 27.958 121.458 27.874C121.374 27.79 121.332 27.682 121.332 27.55V15.67C121.332 15.538 121.374 15.43 121.458 15.346C121.542 15.262 121.65 15.22 121.782 15.22H124.086C124.218 15.22 124.326 15.262 124.41 15.346C124.494 15.43 124.536 15.538 124.536 15.67V19.684C124.86 19.312 125.256 19.018 125.724 18.802C126.204 18.574 126.756 18.46 127.38 18.46C128.076 18.46 128.694 18.616 129.234 18.928C129.786 19.24 130.218 19.702 130.53 20.314C130.842 20.914 130.998 21.652 130.998 22.528V27.55C130.998 27.682 130.956 27.79 130.872 27.874C130.788 27.958 130.68 28 130.548 28H128.226C128.106 28 127.998 27.958 127.902 27.874C127.818 27.79 127.776 27.682 127.776 27.55V22.636C127.776 22.072 127.638 21.64 127.362 21.34C127.098 21.028 126.702 20.872 126.174 20.872C125.682 20.872 125.286 21.028 124.986 21.34C124.686 21.64 124.536 22.072 124.536 22.636V27.55C124.536 27.682 124.494 27.79 124.41 27.874C124.326 27.958 124.218 28 124.086 28H121.782ZM140.212 28C140.008 28 139.846 27.946 139.726 27.838C139.606 27.73 139.522 27.604 139.474 27.46L135.802 15.94C135.778 15.88 135.766 15.826 135.766 15.778C135.766 15.682 135.802 15.598 135.874 15.526C135.958 15.442 136.054 15.4 136.162 15.4H138.394C138.586 15.4 138.736 15.454 138.844 15.562C138.952 15.67 139.018 15.772 139.042 15.868L141.58 24.184L144.136 15.868C144.172 15.772 144.238 15.67 144.334 15.562C144.442 15.454 144.592 15.4 144.784 15.4H147.016C147.124 15.4 147.214 15.442 147.286 15.526C147.37 15.598 147.412 15.682 147.412 15.778C147.412 15.826 147.4 15.88 147.376 15.94L143.704 27.46C143.656 27.604 143.572 27.73 143.452 27.838C143.344 27.946 143.182 28 142.966 28H140.212ZM150.647 28.18C149.999 28.18 149.417 28.06 148.901 27.82C148.397 27.568 147.995 27.232 147.695 26.812C147.395 26.392 147.245 25.918 147.245 25.39C147.245 24.538 147.593 23.866 148.289 23.374C148.985 22.87 149.909 22.528 151.061 22.348L153.311 22.006V21.754C153.311 21.322 153.221 20.992 153.041 20.764C152.861 20.536 152.531 20.422 152.051 20.422C151.715 20.422 151.439 20.488 151.223 20.62C151.019 20.752 150.857 20.932 150.737 21.16C150.629 21.316 150.479 21.394 150.287 21.394H148.271C148.139 21.394 148.037 21.358 147.965 21.286C147.893 21.202 147.863 21.106 147.875 20.998C147.875 20.782 147.953 20.536 148.109 20.26C148.277 19.972 148.529 19.69 148.865 19.414C149.201 19.138 149.633 18.91 150.161 18.73C150.689 18.55 151.325 18.46 152.069 18.46C152.849 18.46 153.515 18.55 154.067 18.73C154.619 18.91 155.063 19.162 155.399 19.486C155.747 19.81 156.005 20.194 156.173 20.638C156.341 21.07 156.425 21.55 156.425 22.078V27.55C156.425 27.682 156.377 27.79 156.281 27.874C156.197 27.958 156.095 28 155.975 28H153.887C153.755 28 153.647 27.958 153.563 27.874C153.479 27.79 153.437 27.682 153.437 27.55V26.92C153.281 27.148 153.071 27.358 152.807 27.55C152.543 27.742 152.231 27.892 151.871 28C151.523 28.12 151.115 28.18 150.647 28.18ZM151.493 26.128C151.841 26.128 152.153 26.056 152.429 25.912C152.717 25.756 152.939 25.522 153.095 25.21C153.263 24.886 153.347 24.484 153.347 24.004V23.752L151.817 24.022C151.253 24.118 150.839 24.268 150.575 24.472C150.323 24.664 150.197 24.892 150.197 25.156C150.197 25.36 150.257 25.534 150.377 25.678C150.497 25.822 150.653 25.936 150.845 26.02C151.037 26.092 151.253 26.128 151.493 26.128ZM161.895 28.18C161.211 28.18 160.599 28.024 160.059 27.712C159.531 27.4 159.117 26.944 158.817 26.344C158.517 25.732 158.367 24.988 158.367 24.112V19.09C158.367 18.958 158.409 18.85 158.493 18.766C158.577 18.682 158.685 18.64 158.817 18.64H161.067C161.199 18.64 161.307 18.682 161.391 18.766C161.475 18.85 161.517 18.958 161.517 19.09V24.004C161.517 25.18 162.045 25.768 163.101 25.768C163.593 25.768 163.983 25.618 164.271 25.318C164.571 25.006 164.721 24.568 164.721 24.004V19.09C164.721 18.958 164.763 18.85 164.847 18.766C164.931 18.682 165.039 18.64 165.171 18.64H167.421C167.553 18.64 167.661 18.682 167.745 18.766C167.829 18.85 167.871 18.958 167.871 19.09V27.55C167.871 27.682 167.829 27.79 167.745 27.874C167.661 27.958 167.553 28 167.421 28H165.333C165.213 28 165.105 27.958 165.009 27.874C164.925 27.79 164.883 27.682 164.883 27.55V26.866C164.571 27.298 164.163 27.628 163.659 27.856C163.167 28.072 162.579 28.18 161.895 28.18ZM170.438 28C170.306 28 170.198 27.958 170.114 27.874C170.03 27.79 169.988 27.682 169.988 27.55V15.67C169.988 15.538 170.03 15.43 170.114 15.346C170.198 15.262 170.306 15.22 170.438 15.22H172.562C172.694 15.22 172.802 15.262 172.886 15.346C172.97 15.43 173.012 15.538 173.012 15.67V27.55C173.012 27.682 172.97 27.79 172.886 27.874C172.802 27.958 172.694 28 172.562 28H170.438ZM179.926 28C179.158 28 178.492 27.88 177.928 27.64C177.376 27.388 176.95 27.004 176.65 26.488C176.35 25.96 176.2 25.282 176.2 24.454V20.998H174.796C174.664 20.998 174.55 20.956 174.454 20.872C174.37 20.788 174.328 20.68 174.328 20.548V19.09C174.328 18.958 174.37 18.85 174.454 18.766C174.55 18.682 174.664 18.64 174.796 18.64H176.2V15.67C176.2 15.538 176.242 15.43 176.326 15.346C176.422 15.262 176.53 15.22 176.65 15.22H178.738C178.87 15.22 178.978 15.262 179.062 15.346C179.146 15.43 179.188 15.538 179.188 15.67V18.64H181.438C181.57 18.64 181.678 18.682 181.762 18.766C181.846 18.85 181.888 18.958 181.888 19.09V20.548C181.888 20.68 181.846 20.788 181.762 20.872C181.678 20.956 181.57 20.998 181.438 20.998H179.188V24.202C179.188 24.61 179.266 24.934 179.422 25.174C179.578 25.414 179.842 25.534 180.214 25.534H181.6C181.732 25.534 181.84 25.576 181.924 25.66C182.008 25.744 182.05 25.852 182.05 25.984V27.55C182.05 27.682 182.008 27.79 181.924 27.874C181.84 27.958 181.732 28 181.6 28H179.926Z" fill="#FFFDFA"/>
<defs>
<linearGradient id="paint0_linear_2_5951" x1="8.06754" y1="49.7365" x2="74.8293" y2="10.5099" gradientUnits="userSpaceOnUse">
<stop offset="0.28125" stop-color="#0077B6"/>
<stop offset="1" stop-color="#90E0EF"/>
</linearGradient>
<linearGradient id="paint1_linear_2_5951" x1="8.06754" y1="49.7365" x2="74.8293" y2="10.5099" gradientUnits="userSpaceOnUse">
<stop offset="0.28125" stop-color="#0077B6"/>
<stop offset="1" stop-color="#90E0EF"/>
</linearGradient>
<linearGradient id="paint2_linear_2_5951" x1="17.4029" y1="40.169" x2="61.9108" y2="14.0179" gradientUnits="userSpaceOnUse">
<stop offset="0.28125" stop-color="#0077B6"/>
<stop offset="1" stop-color="#90E0EF"/>
</linearGradient>
<linearGradient id="paint3_linear_2_5951" x1="29.0721" y1="27.5673" x2="45.7625" y2="17.7607" gradientUnits="userSpaceOnUse">
<stop offset="0.28125" stop-color="#0077B6"/>
<stop offset="1" stop-color="#90E0EF"/>
</linearGradient>
</defs>
</svg>
